<svg xmlns="http://www.w3.org/2000/svg" viewBox="0 0 512 512">
  <defs>
    <linearGradient id="bg" x1="0%" y1="0%" x2="100%" y2="100%">
      <stop offset="0%" stop-color="#10b981"/>
      <stop offset="100%" stop-color="#06b6d4"/>
    </linearGradient>
    <linearGradient id="icon" x1="0%" y1="0%" x2="100%" y2="100%">
      <stop offset="0%" stop-color="#ffffff"/>
      <stop offset="100%" stop-color="#f0fdfa"/>
    </linearGradient>
  </defs>
  <rect width="512" height="512" rx="96" fill="url(#bg)"/>
  <!-- Receipt body -->
  <path d="M156 88h200c13.3 0 24 10.7 24 24v288l-40-24-40 24-44-24-44 24-40-24-40 24V112c0-13.3 10.7-24 24-24z" fill="url(#icon)"/>
  <!-- Receipt lines -->
  <rect x="188" y="152" width="136" height="20" rx="4" fill="#10b981" opacity="0.3"/>
  <rect x="188" y="196" width="100" height="20" rx="4" fill="#10b981" opacity="0.3"/>
  <rect x="188" y="240" width="120" height="20" rx="4" fill="#10b981" opacity="0.3"/>
  <rect x="188" y="300" width="80" height="24" rx="4" fill="#10b981" opacity="0.4"/>
</svg>
