<svg xmlns="http://www.w3.org/2000/svg" width="512" height="512" viewBox="0 0 512 512">
<rect width="512" height="512" rx="115.2" fill="#343434"></rect>
<g transform="translate(149.58,361.47)"><path d="M60.06 0L22.12 0L22.12-210.94L114.11-210.94Q188.67-210.94 188.67-152.05L188.67-152.05Q188.67-103.56 136.23-94.78L136.23-94.78L190.72 0L147.95 0L94.92-92.87L60.06-92.87L60.06 0ZM60.06-181.05L60.06-122.90L112.50-122.90Q130.81-122.90 140.70-130.30Q150.59-137.70 150.59-151.76Q150.59-165.82 140.55-173.44Q130.52-181.05 112.06-181.05L112.06-181.05L60.06-181.05Z" fill="#fbfbfb"></path></g>
</svg>