<svg width="207" height="48" viewBox="0 0 207 48" fill="none" xmlns="http://www.w3.org/2000/svg">
<path d="M35.4286 2H4.57143C3.15127 2 2 3.15127 2 4.57143V43.1429C2 44.563 3.15127 45.7143 4.57143 45.7143H35.4286C36.8487 45.7143 38 44.563 38 43.1429V4.57143C38 3.15127 36.8487 2 35.4286 2Z" fill="#F9F9F9"/>
<path d="M35.4286 2H4.57143C3.15127 2 2 3.15127 2 4.57143V43.1429C2 44.563 3.15127 45.7143 4.57143 45.7143H35.4286C36.8487 45.7143 38 44.563 38 43.1429V4.57143C38 3.15127 36.8487 2 35.4286 2Z" fill="#F0F0F0"/>
<path opacity="0.6" d="M31.5714 12.2857H8.42857C7.71849 12.2857 7.14285 12.8613 7.14285 13.5714C7.14285 14.2815 7.71849 14.8571 8.42857 14.8571H31.5714C32.2815 14.8571 32.8571 14.2815 32.8571 13.5714C32.8571 12.8613 32.2815 12.2857 31.5714 12.2857Z" fill="url(#paint0_linear_2_110)"/>
<path opacity="0.4" d="M25.1429 17.4286H8.42857C7.71849 17.4286 7.14285 18.0042 7.14285 18.7143C7.14285 19.4244 7.71849 20 8.42857 20H25.1429C25.8529 20 26.4286 19.4244 26.4286 18.7143C26.4286 18.0042 25.8529 17.4286 25.1429 17.4286Z" fill="url(#paint1_linear_2_110)"/>
<path opacity="0.4" d="M22.5714 22.5714H8.42857C7.71849 22.5714 7.14285 23.1471 7.14285 23.8571C7.14285 24.5672 7.71849 25.1429 8.42857 25.1429H22.5714C23.2815 25.1429 23.8571 24.5672 23.8571 23.8571C23.8571 23.1471 23.2815 22.5714 22.5714 22.5714Z" fill="url(#paint2_linear_2_110)"/>
<path opacity="0.3" d="M18.7143 27.7143H8.42857C7.71849 27.7143 7.14285 28.2899 7.14285 29C7.14285 29.7101 7.71849 30.2857 8.42857 30.2857H18.7143C19.4244 30.2857 20 29.7101 20 29C20 28.2899 19.4244 27.7143 18.7143 27.7143Z" fill="#08A373"/>
<path d="M194.481 38.252C192.561 38.252 190.809 37.808 189.225 36.92C187.665 36.032 186.417 34.82 185.481 33.284C184.569 31.748 184.113 29.996 184.113 28.028C184.113 26.06 184.569 24.308 185.481 22.772C186.417 21.236 187.665 20.024 189.225 19.136C190.785 18.248 192.537 17.804 194.481 17.804C196.401 17.804 198.141 18.248 199.701 19.136C201.261 20.024 202.497 21.236 203.409 22.772C204.345 24.284 204.813 26.036 204.813 28.028C204.813 29.996 204.345 31.748 203.409 33.284C202.473 34.82 201.225 36.032 199.665 36.92C198.105 37.808 196.377 38.252 194.481 38.252ZM194.481 33.932C195.537 33.932 196.461 33.68 197.253 33.176C198.069 32.672 198.705 31.976 199.161 31.088C199.641 30.176 199.881 29.156 199.881 28.028C199.881 26.876 199.641 25.868 199.161 25.004C198.705 24.116 198.069 23.42 197.253 22.916C196.461 22.388 195.537 22.124 194.481 22.124C193.401 22.124 192.453 22.388 191.637 22.916C190.821 23.42 190.173 24.116 189.693 25.004C189.237 25.868 189.009 26.876 189.009 28.028C189.009 29.156 189.237 30.176 189.693 31.088C190.173 31.976 190.821 32.672 191.637 33.176C192.453 33.68 193.401 33.932 194.481 33.932Z" fill="url(#paint3_linear_2_110)"/>
<path d="M179.137 38.036C176.929 38.036 175.213 37.436 173.989 36.236C172.789 35.012 172.189 33.296 172.189 31.088V22.448H168.805V18.236H169.165C170.125 18.236 170.869 17.984 171.397 17.48C171.925 16.976 172.189 16.244 172.189 15.284V13.772H176.905V18.236H181.405V22.448H176.905V30.836C176.905 31.484 177.013 32.036 177.229 32.492C177.469 32.948 177.829 33.296 178.309 33.536C178.813 33.776 179.449 33.896 180.217 33.896C180.385 33.896 180.577 33.884 180.793 33.86C181.033 33.836 181.261 33.812 181.477 33.788V37.82C181.141 37.868 180.757 37.916 180.325 37.964C179.893 38.012 179.497 38.036 179.137 38.036Z" fill="url(#paint4_linear_2_110)"/>
<path d="M146.374 45.02V18.236H150.802V22.124L150.37 21.152C151.042 20.096 151.954 19.28 153.106 18.704C154.258 18.104 155.59 17.804 157.102 17.804C158.95 17.804 160.618 18.26 162.106 19.172C163.594 20.084 164.77 21.308 165.634 22.844C166.522 24.38 166.966 26.108 166.966 28.028C166.966 29.924 166.534 31.652 165.67 33.212C164.806 34.772 163.63 36.008 162.142 36.92C160.654 37.808 158.962 38.252 157.066 38.252C155.65 38.252 154.342 37.976 153.142 37.424C151.966 36.848 151.03 36.032 150.334 34.976L151.09 34.04V45.02H146.374ZM156.526 33.932C157.606 33.932 158.566 33.68 159.406 33.176C160.246 32.672 160.894 31.976 161.35 31.088C161.83 30.2 162.07 29.18 162.07 28.028C162.07 26.876 161.83 25.868 161.35 25.004C160.894 24.116 160.246 23.42 159.406 22.916C158.566 22.388 157.606 22.124 156.526 22.124C155.494 22.124 154.558 22.376 153.718 22.88C152.902 23.384 152.254 24.092 151.774 25.004C151.318 25.892 151.09 26.9 151.09 28.028C151.09 29.18 151.318 30.2 151.774 31.088C152.254 31.976 152.902 32.672 153.718 33.176C154.558 33.68 155.494 33.932 156.526 33.932Z" fill="url(#paint5_linear_2_110)"/>
<path d="M137.303 37.82V18.236H142.019V37.82H137.303ZM137.303 16.04V11H142.019V16.04H137.303Z" fill="url(#paint6_linear_2_110)"/>
<path d="M124.548 38.252C122.532 38.252 120.768 37.796 119.256 36.884C117.744 35.972 116.568 34.736 115.728 33.176C114.888 31.616 114.468 29.888 114.468 27.992C114.468 26.024 114.888 24.284 115.728 22.772C116.592 21.236 117.756 20.024 119.22 19.136C120.708 18.248 122.364 17.804 124.188 17.804C125.724 17.804 127.068 18.056 128.22 18.56C129.396 19.064 130.392 19.76 131.208 20.648C132.024 21.536 132.648 22.556 133.08 23.708C133.512 24.836 133.728 26.06 133.728 27.38C133.728 27.716 133.704 28.064 133.656 28.424C133.632 28.784 133.572 29.096 133.476 29.36H118.356V25.76H130.812L128.58 27.452C128.796 26.348 128.736 25.364 128.4 24.5C128.088 23.636 127.56 22.952 126.816 22.448C126.096 21.944 125.22 21.692 124.188 21.692C123.204 21.692 122.328 21.944 121.56 22.448C120.792 22.928 120.204 23.648 119.796 24.608C119.412 25.544 119.268 26.684 119.364 28.028C119.268 29.228 119.424 30.296 119.832 31.232C120.264 32.144 120.888 32.852 121.704 33.356C122.544 33.86 123.504 34.112 124.584 34.112C125.664 34.112 126.576 33.884 127.32 33.428C128.088 32.972 128.688 32.36 129.12 31.592L132.936 33.464C132.552 34.4 131.952 35.228 131.136 35.948C130.32 36.668 129.348 37.232 128.22 37.64C127.116 38.048 125.892 38.252 124.548 38.252Z" fill="url(#paint7_linear_2_110)"/>
<path d="M102.79 38.252C100.846 38.252 99.0939 37.808 97.5339 36.92C95.9979 36.008 94.7859 34.784 93.8979 33.248C93.0099 31.688 92.5659 29.936 92.5659 27.992C92.5659 26.048 93.0099 24.308 93.8979 22.772C94.7859 21.236 95.9979 20.024 97.5339 19.136C99.0939 18.248 100.846 17.804 102.79 17.804C104.182 17.804 105.478 18.056 106.678 18.56C107.878 19.04 108.91 19.712 109.774 20.576C110.662 21.416 111.298 22.424 111.682 23.6L107.542 25.4C107.182 24.416 106.57 23.624 105.706 23.024C104.866 22.424 103.894 22.124 102.79 22.124C101.758 22.124 100.834 22.376 100.018 22.88C99.2259 23.384 98.6019 24.08 98.1459 24.968C97.6899 25.856 97.4619 26.876 97.4619 28.028C97.4619 29.18 97.6899 30.2 98.1459 31.088C98.6019 31.976 99.2259 32.672 100.018 33.176C100.834 33.68 101.758 33.932 102.79 33.932C103.918 33.932 104.902 33.632 105.742 33.032C106.582 32.432 107.182 31.628 107.542 30.62L111.682 32.492C111.298 33.596 110.674 34.592 109.81 35.48C108.946 36.344 107.914 37.028 106.714 37.532C105.514 38.012 104.206 38.252 102.79 38.252Z" fill="url(#paint8_linear_2_110)"/>
<path d="M80.6029 38.252C78.5869 38.252 76.8229 37.796 75.3109 36.884C73.7989 35.972 72.6229 34.736 71.7829 33.176C70.9429 31.616 70.5229 29.888 70.5229 27.992C70.5229 26.024 70.9429 24.284 71.7829 22.772C72.6469 21.236 73.8109 20.024 75.2749 19.136C76.7629 18.248 78.4189 17.804 80.2429 17.804C81.7789 17.804 83.1229 18.056 84.2749 18.56C85.4509 19.064 86.4469 19.76 87.2629 20.648C88.0789 21.536 88.7029 22.556 89.1349 23.708C89.5669 24.836 89.7829 26.06 89.7829 27.38C89.7829 27.716 89.7589 28.064 89.7109 28.424C89.6869 28.784 89.6269 29.096 89.5309 29.36H74.4109V25.76H86.8669L84.6349 27.452C84.8509 26.348 84.7909 25.364 84.4549 24.5C84.1429 23.636 83.6149 22.952 82.8709 22.448C82.1509 21.944 81.2749 21.692 80.2429 21.692C79.2589 21.692 78.3829 21.944 77.6149 22.448C76.8469 22.928 76.2589 23.648 75.8509 24.608C75.4669 25.544 75.3229 26.684 75.4189 28.028C75.3229 29.228 75.4789 30.296 75.8869 31.232C76.3189 32.144 76.9429 32.852 77.7589 33.356C78.5989 33.86 79.5589 34.112 80.6389 34.112C81.7189 34.112 82.6309 33.884 83.3749 33.428C84.1429 32.972 84.7429 32.36 85.1749 31.592L88.9909 33.464C88.6069 34.4 88.0069 35.228 87.1909 35.948C86.3749 36.668 85.4029 37.232 84.2749 37.64C83.1709 38.048 81.9469 38.252 80.6029 38.252Z" fill="url(#paint9_linear_2_110)"/>
<path d="M49 37.82V11H58.972C60.796 11 62.404 11.336 63.796 12.008C65.212 12.656 66.316 13.616 67.108 14.888C67.9 16.136 68.296 17.66 68.296 19.46C68.296 21.308 67.852 22.88 66.964 24.176C66.1 25.472 64.924 26.432 63.436 27.056L69.592 37.82H64.048L57.46 26.048L60.628 27.92H53.896V37.82H49ZM53.896 23.6H59.044C59.932 23.6 60.7 23.432 61.348 23.096C61.996 22.736 62.5 22.244 62.86 21.62C63.22 20.996 63.4 20.276 63.4 19.46C63.4 18.62 63.22 17.9 62.86 17.3C62.5 16.676 61.996 16.196 61.348 15.86C60.7 15.5 59.932 15.32 59.044 15.32H53.896V23.6Z" fill="url(#paint10_linear_2_110)"/>
<defs>
<linearGradient id="paint0_linear_2_110" x1="7.14285" y1="12.2857" x2="2578.57" y2="12.2857" gradientUnits="userSpaceOnUse">
<stop stop-color="#059669"/>
<stop offset="0.5" stop-color="#06B6D4"/>
<stop offset="1" stop-color="#8B5CF6"/>
</linearGradient>
<linearGradient id="paint1_linear_2_110" x1="7.14285" y1="17.4286" x2="1935.71" y2="17.4286" gradientUnits="userSpaceOnUse">
<stop stop-color="#059669"/>
<stop offset="0.5" stop-color="#06B6D4"/>
<stop offset="1" stop-color="#8B5CF6"/>
</linearGradient>
<linearGradient id="paint2_linear_2_110" x1="7.14285" y1="22.5714" x2="1678.57" y2="22.5714" gradientUnits="userSpaceOnUse">
<stop stop-color="#059669"/>
<stop offset="0.5" stop-color="#06B6D4"/>
<stop offset="1" stop-color="#8B5CF6"/>
</linearGradient>
<linearGradient id="paint3_linear_2_110" x1="46.408" y1="23.32" x2="206.408" y2="23.32" gradientUnits="userSpaceOnUse">
<stop stop-color="#059669"/>
<stop offset="0.5" stop-color="#06B6D4"/>
<stop offset="1" stop-color="#8B5CF6"/>
</linearGradient>
<linearGradient id="paint4_linear_2_110" x1="46.408" y1="23.32" x2="206.408" y2="23.32" gradientUnits="userSpaceOnUse">
<stop stop-color="#059669"/>
<stop offset="0.5" stop-color="#06B6D4"/>
<stop offset="1" stop-color="#8B5CF6"/>
</linearGradient>
<linearGradient id="paint5_linear_2_110" x1="46.408" y1="23.32" x2="206.408" y2="23.32" gradientUnits="userSpaceOnUse">
<stop stop-color="#059669"/>
<stop offset="0.5" stop-color="#06B6D4"/>
<stop offset="1" stop-color="#8B5CF6"/>
</linearGradient>
<linearGradient id="paint6_linear_2_110" x1="46.408" y1="23.32" x2="206.408" y2="23.32" gradientUnits="userSpaceOnUse">
<stop stop-color="#059669"/>
<stop offset="0.5" stop-color="#06B6D4"/>
<stop offset="1" stop-color="#8B5CF6"/>
</linearGradient>
<linearGradient id="paint7_linear_2_110" x1="46.408" y1="23.32" x2="206.408" y2="23.32" gradientUnits="userSpaceOnUse">
<stop stop-color="#059669"/>
<stop offset="0.5" stop-color="#06B6D4"/>
<stop offset="1" stop-color="#8B5CF6"/>
</linearGradient>
<linearGradient id="paint8_linear_2_110" x1="46.408" y1="23.32" x2="206.408" y2="23.32" gradientUnits="userSpaceOnUse">
<stop stop-color="#059669"/>
<stop offset="0.5" stop-color="#06B6D4"/>
<stop offset="1" stop-color="#8B5CF6"/>
</linearGradient>
<linearGradient id="paint9_linear_2_110" x1="46.408" y1="23.32" x2="206.408" y2="23.32" gradientUnits="userSpaceOnUse">
<stop stop-color="#059669"/>
<stop offset="0.5" stop-color="#06B6D4"/>
<stop offset="1" stop-color="#8B5CF6"/>
</linearGradient>
<linearGradient id="paint10_linear_2_110" x1="46.408" y1="23.32" x2="206.408" y2="23.32" gradientUnits="userSpaceOnUse">
<stop stop-color="#059669"/>
<stop offset="0.5" stop-color="#06B6D4"/>
<stop offset="1" stop-color="#8B5CF6"/>
</linearGradient>
</defs>
</svg>
