<svg width="225" height="56" viewBox="0 0 225 56" fill="none" xmlns="http://www.w3.org/2000/svg">
<g clip-path="url(#clip0_2_110)">
<path d="M44 0H12C5.37258 0 0 5.37258 0 12V44C0 50.6274 5.37258 56 12 56H44C50.6274 56 56 50.6274 56 44V12C56 5.37258 50.6274 0 44 0Z" fill="url(#paint0_linear_2_110)"/>
<path d="M43 2H13C6.92487 2 2 6.92487 2 13V43C2 49.0751 6.92487 54 13 54H43C49.0751 54 54 49.0751 54 43V13C54 6.92487 49.0751 2 43 2Z" fill="white"/>
<path d="M40 11H16C14.8954 11 14 11.8954 14 13V43C14 44.1046 14.8954 45 16 45H40C41.1046 45 42 44.1046 42 43V13C42 11.8954 41.1046 11 40 11Z" fill="#F9F9F9"/>
<path d="M40 11H16C14.8954 11 14 11.8954 14 13V43C14 44.1046 14.8954 45 16 45H40C41.1046 45 42 44.1046 42 43V13C42 11.8954 41.1046 11 40 11Z" fill="#F0F0F0"/>
<path opacity="0.6" d="M37 19H19C18.4477 19 18 19.4477 18 20C18 20.5523 18.4477 21 19 21H37C37.5523 21 38 20.5523 38 20C38 19.4477 37.5523 19 37 19Z" fill="url(#paint1_linear_2_110)"/>
<path opacity="0.4" d="M32 23H19C18.4477 23 18 23.4477 18 24C18 24.5523 18.4477 25 19 25H32C32.5523 25 33 24.5523 33 24C33 23.4477 32.5523 23 32 23Z" fill="url(#paint2_linear_2_110)"/>
<path opacity="0.4" d="M30 27H19C18.4477 27 18 27.4477 18 28C18 28.5523 18.4477 29 19 29H30C30.5523 29 31 28.5523 31 28C31 27.4477 30.5523 27 30 27Z" fill="url(#paint3_linear_2_110)"/>
<path opacity="0.3" d="M27 31H19C18.4477 31 18 31.4477 18 32C18 32.5523 18.4477 33 19 33H27C27.5523 33 28 32.5523 28 32C28 31.4477 27.5523 31 27 31Z" fill="#08A373"/>
<path d="M28.5 47C29.3284 47 30 46.3284 30 45.5C30 44.6716 29.3284 44 28.5 44C27.6716 44 27 44.6716 27 45.5C27 46.3284 27.6716 47 28.5 47Z" fill="white"/>
<path d="M36.5 47C37.3284 47 38 46.3284 38 45.5C38 44.6716 37.3284 44 36.5 44C35.6716 44 35 44.6716 35 45.5C35 46.3284 35.6716 47 36.5 47Z" fill="white"/>
<path d="M40.5 47C41.3284 47 42 46.3284 42 45.5C42 44.6716 41.3284 44 40.5 44C39.6716 44 39 44.6716 39 45.5C39 46.3284 39.6716 47 40.5 47Z" fill="white"/>
<path d="M32.5 47C33.3284 47 34 46.3284 34 45.5C34 44.6716 33.3284 44 32.5 44C31.6716 44 31 44.6716 31 45.5C31 46.3284 31.6716 47 32.5 47Z" fill="white"/>
<path d="M16.5 47C17.3284 47 18 46.3284 18 45.5C18 44.6716 17.3284 44 16.5 44C15.6716 44 15 44.6716 15 45.5C15 46.3284 15.6716 47 16.5 47Z" fill="white"/>
<path d="M20.5 47C21.3284 47 22 46.3284 22 45.5C22 44.6716 21.3284 44 20.5 44C19.6716 44 19 44.6716 19 45.5C19 46.3284 19.6716 47 20.5 47Z" fill="white"/>
<path d="M24.5 47C25.3284 47 26 46.3284 26 45.5C26 44.6716 25.3284 44 24.5 44C23.6716 44 23 44.6716 23 45.5C23 46.3284 23.6716 47 24.5 47Z" fill="white"/>
<path d="M67.592 41V14.18H77.564C79.388 14.18 80.996 14.516 82.388 15.188C83.804 15.836 84.908 16.796 85.7 18.068C86.492 19.316 86.888 20.84 86.888 22.64C86.888 24.488 86.444 26.06 85.556 27.356C84.692 28.652 83.516 29.612 82.028 30.236L88.184 41H82.64L76.052 29.228L79.22 31.1H72.488V41H67.592ZM72.488 26.78H77.636C78.524 26.78 79.292 26.612 79.94 26.276C80.588 25.916 81.092 25.424 81.452 24.8C81.812 24.176 81.992 23.456 81.992 22.64C81.992 21.8 81.812 21.08 81.452 20.48C81.092 19.856 80.588 19.376 79.94 19.04C79.292 18.68 78.524 18.5 77.636 18.5H72.488V26.78ZM99.1949 41.432C97.1789 41.432 95.4149 40.976 93.9029 40.064C92.3909 39.152 91.2149 37.916 90.3749 36.356C89.5349 34.796 89.1149 33.068 89.1149 31.172C89.1149 29.204 89.5349 27.464 90.3749 25.952C91.2389 24.416 92.4029 23.204 93.8669 22.316C95.3549 21.428 97.0109 20.984 98.8349 20.984C100.371 20.984 101.715 21.236 102.867 21.74C104.043 22.244 105.039 22.94 105.855 23.828C106.671 24.716 107.295 25.736 107.727 26.888C108.159 28.016 108.375 29.24 108.375 30.56C108.375 30.896 108.351 31.244 108.303 31.604C108.279 31.964 108.219 32.276 108.123 32.54H93.0029V28.94H105.459L103.227 30.632C103.443 29.528 103.383 28.544 103.047 27.68C102.735 26.816 102.207 26.132 101.463 25.628C100.743 25.124 99.8669 24.872 98.8349 24.872C97.8509 24.872 96.9749 25.124 96.2069 25.628C95.4389 26.108 94.8509 26.828 94.4429 27.788C94.0589 28.724 93.9149 29.864 94.0109 31.208C93.9149 32.408 94.0709 33.476 94.4789 34.412C94.9109 35.324 95.5349 36.032 96.3509 36.536C97.1909 37.04 98.1509 37.292 99.2309 37.292C100.311 37.292 101.223 37.064 101.967 36.608C102.735 36.152 103.335 35.54 103.767 34.772L107.583 36.644C107.199 37.58 106.599 38.408 105.783 39.128C104.967 39.848 103.995 40.412 102.867 40.82C101.763 41.228 100.539 41.432 99.1949 41.432ZM121.382 41.432C119.438 41.432 117.686 40.988 116.126 40.1C114.59 39.188 113.378 37.964 112.49 36.428C111.602 34.868 111.158 33.116 111.158 31.172C111.158 29.228 111.602 27.488 112.49 25.952C113.378 24.416 114.59 23.204 116.126 22.316C117.686 21.428 119.438 20.984 121.382 20.984C122.774 20.984 124.07 21.236 125.27 21.74C126.47 22.22 127.502 22.892 128.366 23.756C129.254 24.596 129.89 25.604 130.274 26.78L126.134 28.58C125.774 27.596 125.162 26.804 124.298 26.204C123.458 25.604 122.486 25.304 121.382 25.304C120.35 25.304 119.426 25.556 118.61 26.06C117.818 26.564 117.194 27.26 116.738 28.148C116.282 29.036 116.054 30.056 116.054 31.208C116.054 32.36 116.282 33.38 116.738 34.268C117.194 35.156 117.818 35.852 118.61 36.356C119.426 36.86 120.35 37.112 121.382 37.112C122.51 37.112 123.494 36.812 124.334 36.212C125.174 35.612 125.774 34.808 126.134 33.8L130.274 35.672C129.89 36.776 129.266 37.772 128.402 38.66C127.538 39.524 126.506 40.208 125.306 40.712C124.106 41.192 122.798 41.432 121.382 41.432ZM143.14 41.432C141.124 41.432 139.36 40.976 137.848 40.064C136.336 39.152 135.16 37.916 134.32 36.356C133.48 34.796 133.06 33.068 133.06 31.172C133.06 29.204 133.48 27.464 134.32 25.952C135.184 24.416 136.348 23.204 137.812 22.316C139.3 21.428 140.956 20.984 142.78 20.984C144.316 20.984 145.66 21.236 146.812 21.74C147.988 22.244 148.984 22.94 149.8 23.828C150.616 24.716 151.24 25.736 151.672 26.888C152.104 28.016 152.32 29.24 152.32 30.56C152.32 30.896 152.296 31.244 152.248 31.604C152.224 31.964 152.164 32.276 152.068 32.54H136.948V28.94H149.404L147.172 30.632C147.388 29.528 147.328 28.544 146.992 27.68C146.68 26.816 146.152 26.132 145.408 25.628C144.688 25.124 143.812 24.872 142.78 24.872C141.796 24.872 140.92 25.124 140.152 25.628C139.384 26.108 138.796 26.828 138.388 27.788C138.004 28.724 137.86 29.864 137.956 31.208C137.86 32.408 138.016 33.476 138.424 34.412C138.856 35.324 139.48 36.032 140.296 36.536C141.136 37.04 142.096 37.292 143.176 37.292C144.256 37.292 145.168 37.064 145.912 36.608C146.68 36.152 147.28 35.54 147.712 34.772L151.528 36.644C151.144 37.58 150.544 38.408 149.728 39.128C148.912 39.848 147.94 40.412 146.812 40.82C145.708 41.228 144.484 41.432 143.14 41.432ZM155.895 41V21.416H160.611V41H155.895ZM155.895 19.22V14.18H160.611V19.22H155.895ZM164.966 48.2V21.416H169.394V25.304L168.962 24.332C169.634 23.276 170.546 22.46 171.698 21.884C172.85 21.284 174.182 20.984 175.694 20.984C177.542 20.984 179.21 21.44 180.698 22.352C182.186 23.264 183.362 24.488 184.226 26.024C185.114 27.56 185.558 29.288 185.558 31.208C185.558 33.104 185.126 34.832 184.262 36.392C183.398 37.952 182.222 39.188 180.734 40.1C179.246 40.988 177.554 41.432 175.658 41.432C174.242 41.432 172.934 41.156 171.734 40.604C170.558 40.028 169.622 39.212 168.926 38.156L169.682 37.22V48.2H164.966ZM175.118 37.112C176.198 37.112 177.158 36.86 177.998 36.356C178.838 35.852 179.486 35.156 179.942 34.268C180.422 33.38 180.662 32.36 180.662 31.208C180.662 30.056 180.422 29.048 179.942 28.184C179.486 27.296 178.838 26.6 177.998 26.096C177.158 25.568 176.198 25.304 175.118 25.304C174.086 25.304 173.15 25.556 172.31 26.06C171.494 26.564 170.846 27.272 170.366 28.184C169.91 29.072 169.682 30.08 169.682 31.208C169.682 32.36 169.91 33.38 170.366 34.268C170.846 35.156 171.494 35.852 172.31 36.356C173.15 36.86 174.086 37.112 175.118 37.112ZM197.729 41.216C195.521 41.216 193.805 40.616 192.581 39.416C191.381 38.192 190.781 36.476 190.781 34.268V25.628H187.397V21.416H187.757C188.717 21.416 189.461 21.164 189.989 20.66C190.517 20.156 190.781 19.424 190.781 18.464V16.952H195.497V21.416H199.997V25.628H195.497V34.016C195.497 34.664 195.605 35.216 195.821 35.672C196.061 36.128 196.421 36.476 196.901 36.716C197.405 36.956 198.041 37.076 198.809 37.076C198.977 37.076 199.169 37.064 199.385 37.04C199.625 37.016 199.853 36.992 200.069 36.968V41C199.733 41.048 199.349 41.096 198.917 41.144C198.485 41.192 198.089 41.216 197.729 41.216ZM213.073 41.432C211.153 41.432 209.401 40.988 207.817 40.1C206.257 39.212 205.009 38 204.073 36.464C203.161 34.928 202.705 33.176 202.705 31.208C202.705 29.24 203.161 27.488 204.073 25.952C205.009 24.416 206.257 23.204 207.817 22.316C209.377 21.428 211.129 20.984 213.073 20.984C214.993 20.984 216.733 21.428 218.293 22.316C219.853 23.204 221.089 24.416 222.001 25.952C222.937 27.464 223.405 29.216 223.405 31.208C223.405 33.176 222.937 34.928 222.001 36.464C221.065 38 219.817 39.212 218.257 40.1C216.697 40.988 214.969 41.432 213.073 41.432ZM213.073 37.112C214.129 37.112 215.053 36.86 215.845 36.356C216.661 35.852 217.297 35.156 217.753 34.268C218.233 33.356 218.473 32.336 218.473 31.208C218.473 30.056 218.233 29.048 217.753 28.184C217.297 27.296 216.661 26.6 215.845 26.096C215.053 25.568 214.129 25.304 213.073 25.304C211.993 25.304 211.045 25.568 210.229 26.096C209.413 26.6 208.765 27.296 208.285 28.184C207.829 29.048 207.601 30.056 207.601 31.208C207.601 32.336 207.829 33.356 208.285 34.268C208.765 35.156 209.413 35.852 210.229 36.356C211.045 36.86 211.993 37.112 213.073 37.112Z" fill="url(#paint4_linear_2_110)"/>
</g>
<defs>
<linearGradient id="paint0_linear_2_110" x1="0" y1="0" x2="5600" y2="0" gradientUnits="userSpaceOnUse">
<stop stop-color="#059669"/>
<stop offset="0.5" stop-color="#06B6D4"/>
<stop offset="1" stop-color="#8B5CF6"/>
</linearGradient>
<linearGradient id="paint1_linear_2_110" x1="18" y1="19" x2="2018" y2="19" gradientUnits="userSpaceOnUse">
<stop stop-color="#059669"/>
<stop offset="0.5" stop-color="#06B6D4"/>
<stop offset="1" stop-color="#8B5CF6"/>
</linearGradient>
<linearGradient id="paint2_linear_2_110" x1="18" y1="23" x2="1518" y2="23" gradientUnits="userSpaceOnUse">
<stop stop-color="#059669"/>
<stop offset="0.5" stop-color="#06B6D4"/>
<stop offset="1" stop-color="#8B5CF6"/>
</linearGradient>
<linearGradient id="paint3_linear_2_110" x1="18" y1="27" x2="1318" y2="27" gradientUnits="userSpaceOnUse">
<stop stop-color="#059669"/>
<stop offset="0.5" stop-color="#06B6D4"/>
<stop offset="1" stop-color="#8B5CF6"/>
</linearGradient>
<linearGradient id="paint4_linear_2_110" x1="65" y1="26.5" x2="225" y2="26.5" gradientUnits="userSpaceOnUse">
<stop stop-color="#059669"/>
<stop offset="0.5" stop-color="#06B6D4"/>
<stop offset="1" stop-color="#8B5CF6"/>
</linearGradient>
<clipPath id="clip0_2_110">
<rect width="225" height="56" fill="white"/>
</clipPath>
</defs>
</svg>
