<svg width="156" height="35" viewBox="0 0 156 35" fill="none" xmlns="http://www.w3.org/2000/svg">
<path d="M4.91738e-06 26.82V1.19209e-06H9.97201C11.796 1.19209e-06 13.404 0.336002 14.796 1.008C16.212 1.656 17.316 2.616 18.108 3.888C18.9 5.136 19.296 6.66 19.296 8.46C19.296 10.308 18.852 11.88 17.964 13.176C17.1 14.472 15.924 15.432 14.436 16.056L20.592 26.82H15.048L8.46001 15.048L11.628 16.92H4.896V26.82H4.91738e-06ZM4.896 12.6H10.044C10.932 12.6 11.7 12.432 12.348 12.096C12.996 11.736 13.5 11.244 13.86 10.62C14.22 9.996 14.4 9.276 14.4 8.46C14.4 7.62 14.22 6.9 13.86 6.3C13.5 5.676 12.996 5.196 12.348 4.86C11.7 4.5 10.932 4.32 10.044 4.32H4.896V12.6ZM31.6029 27.252C29.5869 27.252 27.8229 26.796 26.3109 25.884C24.7989 24.972 23.6229 23.736 22.7829 22.176C21.9429 20.616 21.5229 18.888 21.5229 16.992C21.5229 15.024 21.9429 13.284 22.7829 11.772C23.6469 10.236 24.8109 9.024 26.2749 8.136C27.7629 7.248 29.4189 6.804 31.2429 6.804C32.7789 6.804 34.1229 7.056 35.2749 7.56C36.4509 8.064 37.4469 8.76 38.2629 9.648C39.0789 10.536 39.7029 11.556 40.1349 12.708C40.5669 13.836 40.7829 15.06 40.7829 16.38C40.7829 16.716 40.7589 17.064 40.7109 17.424C40.6869 17.784 40.6269 18.096 40.5309 18.36H25.4109V14.76H37.8669L35.6349 16.452C35.8509 15.348 35.7909 14.364 35.4549 13.5C35.1429 12.636 34.6149 11.952 33.8709 11.448C33.1509 10.944 32.2749 10.692 31.2429 10.692C30.2589 10.692 29.3829 10.944 28.6149 11.448C27.8469 11.928 27.2589 12.648 26.8509 13.608C26.4669 14.544 26.3229 15.684 26.4189 17.028C26.3229 18.228 26.4789 19.296 26.8869 20.232C27.3189 21.144 27.9429 21.852 28.7589 22.356C29.5989 22.86 30.5589 23.112 31.6389 23.112C32.7189 23.112 33.6309 22.884 34.3749 22.428C35.1429 21.972 35.7429 21.36 36.1749 20.592L39.9909 22.464C39.6069 23.4 39.0069 24.228 38.1909 24.948C37.3749 25.668 36.4029 26.232 35.2749 26.64C34.1709 27.048 32.9469 27.252 31.6029 27.252ZM53.7899 27.252C51.8459 27.252 50.0939 26.808 48.5339 25.92C46.9979 25.008 45.7859 23.784 44.8979 22.248C44.0099 20.688 43.5659 18.936 43.5659 16.992C43.5659 15.048 44.0099 13.308 44.8979 11.772C45.7859 10.236 46.9979 9.024 48.5339 8.136C50.0939 7.248 51.8459 6.804 53.7899 6.804C55.1819 6.804 56.4779 7.056 57.6779 7.56C58.8779 8.04 59.9099 8.712 60.7739 9.576C61.6619 10.416 62.2979 11.424 62.6819 12.6L58.5419 14.4C58.1819 13.416 57.5699 12.624 56.7059 12.024C55.8659 11.424 54.8939 11.124 53.7899 11.124C52.7579 11.124 51.8339 11.376 51.0179 11.88C50.2259 12.384 49.6019 13.08 49.1459 13.968C48.6899 14.856 48.4619 15.876 48.4619 17.028C48.4619 18.18 48.6899 19.2 49.1459 20.088C49.6019 20.976 50.2259 21.672 51.0179 22.176C51.8339 22.68 52.7579 22.932 53.7899 22.932C54.9179 22.932 55.9019 22.632 56.7419 22.032C57.5819 21.432 58.1819 20.628 58.5419 19.62L62.6819 21.492C62.2979 22.596 61.6739 23.592 60.8099 24.48C59.9459 25.344 58.9139 26.028 57.7139 26.532C56.5139 27.012 55.2059 27.252 53.7899 27.252ZM75.5483 27.252C73.5323 27.252 71.7683 26.796 70.2563 25.884C68.7443 24.972 67.5683 23.736 66.7283 22.176C65.8883 20.616 65.4683 18.888 65.4683 16.992C65.4683 15.024 65.8883 13.284 66.7283 11.772C67.5923 10.236 68.7563 9.024 70.2203 8.136C71.7083 7.248 73.3643 6.804 75.1883 6.804C76.7243 6.804 78.0683 7.056 79.2203 7.56C80.3963 8.064 81.3923 8.76 82.2083 9.648C83.0243 10.536 83.6483 11.556 84.0803 12.708C84.5123 13.836 84.7283 15.06 84.7283 16.38C84.7283 16.716 84.7043 17.064 84.6563 17.424C84.6323 17.784 84.5723 18.096 84.4763 18.36H69.3563V14.76H81.8123L79.5803 16.452C79.7963 15.348 79.7363 14.364 79.4003 13.5C79.0883 12.636 78.5603 11.952 77.8163 11.448C77.0963 10.944 76.2203 10.692 75.1883 10.692C74.2043 10.692 73.3283 10.944 72.5603 11.448C71.7923 11.928 71.2043 12.648 70.7963 13.608C70.4123 14.544 70.2683 15.684 70.3643 17.028C70.2683 18.228 70.4243 19.296 70.8323 20.232C71.2643 21.144 71.8883 21.852 72.7043 22.356C73.5443 22.86 74.5043 23.112 75.5843 23.112C76.6643 23.112 77.5763 22.884 78.3203 22.428C79.0883 21.972 79.6883 21.36 80.1203 20.592L83.9363 22.464C83.5523 23.4 82.9523 24.228 82.1363 24.948C81.3203 25.668 80.3483 26.232 79.2203 26.64C78.1163 27.048 76.8923 27.252 75.5483 27.252ZM88.3032 26.82V7.236H93.0192V26.82H88.3032ZM88.3032 5.04V1.19209e-06H93.0192V5.04H88.3032ZM97.3735 34.02V7.236H101.802V11.124L101.37 10.152C102.042 9.096 102.954 8.28 104.106 7.704C105.258 7.104 106.59 6.804 108.102 6.804C109.95 6.804 111.618 7.26 113.106 8.172C114.594 9.084 115.77 10.308 116.634 11.844C117.522 13.38 117.966 15.108 117.966 17.028C117.966 18.924 117.534 20.652 116.67 22.212C115.806 23.772 114.63 25.008 113.142 25.92C111.654 26.808 109.962 27.252 108.066 27.252C106.65 27.252 105.342 26.976 104.142 26.424C102.966 25.848 102.03 25.032 101.334 23.976L102.09 23.04V34.02H97.3735ZM107.526 22.932C108.606 22.932 109.566 22.68 110.406 22.176C111.246 21.672 111.894 20.976 112.35 20.088C112.83 19.2 113.07 18.18 113.07 17.028C113.07 15.876 112.83 14.868 112.35 14.004C111.894 13.116 111.246 12.42 110.406 11.916C109.566 11.388 108.606 11.124 107.526 11.124C106.494 11.124 105.558 11.376 104.718 11.88C103.902 12.384 103.254 13.092 102.774 14.004C102.318 14.892 102.09 15.9 102.09 17.028C102.09 18.18 102.318 19.2 102.774 20.088C103.254 20.976 103.902 21.672 104.718 22.176C105.558 22.68 106.494 22.932 107.526 22.932ZM130.137 27.036C127.929 27.036 126.213 26.436 124.989 25.236C123.789 24.012 123.189 22.296 123.189 20.088V11.448H119.805V7.236H120.165C121.125 7.236 121.869 6.984 122.397 6.48C122.925 5.976 123.189 5.244 123.189 4.284V2.772H127.905V7.236H132.405V11.448H127.905V19.836C127.905 20.484 128.013 21.036 128.229 21.492C128.469 21.948 128.829 22.296 129.309 22.536C129.813 22.776 130.449 22.896 131.217 22.896C131.385 22.896 131.577 22.884 131.793 22.86C132.033 22.836 132.261 22.812 132.477 22.788V26.82C132.141 26.868 131.757 26.916 131.325 26.964C130.893 27.012 130.497 27.036 130.137 27.036ZM145.481 27.252C143.561 27.252 141.809 26.808 140.225 25.92C138.665 25.032 137.417 23.82 136.481 22.284C135.569 20.748 135.113 18.996 135.113 17.028C135.113 15.06 135.569 13.308 136.481 11.772C137.417 10.236 138.665 9.024 140.225 8.136C141.785 7.248 143.537 6.804 145.481 6.804C147.401 6.804 149.141 7.248 150.701 8.136C152.261 9.024 153.497 10.236 154.409 11.772C155.345 13.284 155.813 15.036 155.813 17.028C155.813 18.996 155.345 20.748 154.409 22.284C153.473 23.82 152.225 25.032 150.665 25.92C149.105 26.808 147.377 27.252 145.481 27.252ZM145.481 22.932C146.537 22.932 147.461 22.68 148.253 22.176C149.069 21.672 149.705 20.976 150.161 20.088C150.641 19.176 150.881 18.156 150.881 17.028C150.881 15.876 150.641 14.868 150.161 14.004C149.705 13.116 149.069 12.42 148.253 11.916C147.461 11.388 146.537 11.124 145.481 11.124C144.401 11.124 143.453 11.388 142.637 11.916C141.821 12.42 141.173 13.116 140.693 14.004C140.237 14.868 140.009 15.876 140.009 17.028C140.009 18.156 140.237 19.176 140.693 20.088C141.173 20.976 141.821 21.672 142.637 22.176C143.453 22.68 144.401 22.932 145.481 22.932Z" fill="url(#paint0_linear_2_79)"/>
<defs>
<linearGradient id="paint0_linear_2_79" x1="-2.592" y1="12.32" x2="157.408" y2="12.32" gradientUnits="userSpaceOnUse">
<stop stop-color="#059669"/>
<stop offset="0.5" stop-color="#06B6D4"/>
<stop offset="1" stop-color="#8B5CF6"/>
</linearGradient>
</defs>
</svg>
